<svg xmlns="http://www.w3.org/2000/svg">
    <symbol id="logo" width="100" height="100" viewBox="0 0 600 600">
        <g clip-path="url(#clip0_8_56)" viewBox="0 0 600 600">
            <path d="M300 298.973C379.514 342.695 432.042 453.68 401.885 543.285C396.282 556.722 348.141 586.161 300 586.161C251.859 586.161 203.718 556.722 198.115 543.285C192.511 529.848 236.367 509.638 266.393 463.118C300 411.051 288.793 298.973 300 298.973Z" fill="#6F73D2"/>
            <path d="M300.059 299.021C298.167 208.299 368.018 107.316 460.697 88.6296C475.136 86.7639 524.701 113.736 548.772 155.427C572.842 197.118 571.418 253.529 562.583 265.1C553.748 276.672 514.318 248.797 459.017 246.053C397.122 242.982 305.663 308.727 300.059 299.021Z" fill="#6F73D2"/>
            <path d="M300.072 298.946C222.45 345.946 100.071 335.944 37.5482 265.025C28.7131 253.453 27.2888 197.042 51.3592 155.351C75.4296 113.66 124.995 86.6884 139.434 88.554C153.872 90.4197 149.447 138.505 174.721 187.768C203.009 242.906 305.675 289.24 300.072 298.946Z" fill="#6F73D2"/>
        </g>
        <defs>
            <clipPath id="clip0_8_56">
                <rect width="100" height="100" fill="white"/>
            </clipPath>
        </defs>
    </symbol>
    <symbol id="main" width="44" height="44" viewBox="0 0 44 44">
        <g clip-path="url(#clip0_21_248)">
            <path d="M38.5 36.6667C38.5 37.1529 38.3068 37.6192 37.963 37.963C37.6192 38.3069 37.1529 38.5 36.6667 38.5H7.33333C6.8471 38.5 6.38079 38.3069 6.03697 37.963C5.69315 37.6192 5.5 37.1529 5.5 36.6667V17.3983C5.49981 17.119 5.56346 16.8432 5.68611 16.5922C5.80876 16.3412 5.98715 16.1215 6.20767 15.95L20.8743 4.54301C21.1962 4.29266 21.5923 4.15674 22 4.15674C22.4077 4.15674 22.8038 4.29266 23.1257 4.54301L37.7923 15.95C38.0128 16.1215 38.1912 16.3412 38.3139 16.5922C38.4365 16.8432 38.5002 17.119 38.5 17.3983V36.6667ZM34.8333 34.8333V18.293L22 8.31234L9.16667 18.293V34.8333H34.8333Z" />
        </g>
        <defs>
            <clipPath id="clip0_21_248">
                <rect width="44" height="44" fill="white"/>
            </clipPath>
        </defs>
    </symbol>
    <symbol id="catalog" width="44" height="44" viewBox="0 0 44 44">
        <g>
            <path d="M7.33341 29.3334V7.33341H3.66675V3.66675H9.16675C9.65298 3.66675 10.1193 3.8599 10.4631 4.20372C10.8069 4.54754 11.0001 5.01385 11.0001 5.50008V27.5001H33.8031L37.4697 12.8334H14.6667V9.16675H39.8201C40.0988 9.16676 40.3738 9.23029 40.6242 9.35253C40.8746 9.47477 41.0939 9.65249 41.2654 9.87219C41.4368 10.0919 41.5559 10.3478 41.6136 10.6204C41.6713 10.8931 41.6661 11.1753 41.5984 11.4456L37.0151 29.7789C36.9158 30.1754 36.6868 30.5273 36.3646 30.7787C36.0424 31.0302 35.6455 31.1667 35.2367 31.1667H9.16675C8.68052 31.1667 8.2142 30.9736 7.87039 30.6298C7.52657 30.286 7.33341 29.8196 7.33341 29.3334ZM11.0001 42.1667C10.0276 42.1667 9.09499 41.7804 8.40736 41.0928C7.71972 40.4052 7.33341 39.4725 7.33341 38.5001C7.33341 37.5276 7.71972 36.595 8.40736 35.9074C9.09499 35.2197 10.0276 34.8334 11.0001 34.8334C11.9725 34.8334 12.9052 35.2197 13.5928 35.9074C14.2804 36.595 14.6667 37.5276 14.6667 38.5001C14.6667 39.4725 14.2804 40.4052 13.5928 41.0928C12.9052 41.7804 11.9725 42.1667 11.0001 42.1667ZM33.0001 42.1667C32.0276 42.1667 31.095 41.7804 30.4074 41.0928C29.7197 40.4052 29.3334 39.4725 29.3334 38.5001C29.3334 37.5276 29.7197 36.595 30.4074 35.9074C31.095 35.2197 32.0276 34.8334 33.0001 34.8334C33.9725 34.8334 34.9052 35.2197 35.5928 35.9074C36.2804 36.595 36.6667 37.5276 36.6667 38.5001C36.6667 39.4725 36.2804 40.4052 35.5928 41.0928C34.9052 41.7804 33.9725 42.1667 33.0001 42.1667Z" />
        </g>
        <defs>
            <clipPath id="clip0_21_258">
                <rect width="44" height="44" fill="white"/>
            </clipPath>
        </defs>
    </symbol>
    <symbol id="blog" width="44" height="44" viewBox="0 0 44 44">
        <g clip-path="url(#clip0_21_276)">
            <path d="M18.3334 5.5H25.6667C29.5566 5.5 33.2871 7.04523 36.0376 9.79577C38.7882 12.5463 40.3334 16.2768 40.3334 20.1667C40.3334 24.0565 38.7882 27.787 36.0376 30.5376C33.2871 33.2881 29.5566 34.8333 25.6667 34.8333V41.25C16.5001 37.5833 3.66675 32.0833 3.66675 20.1667C3.66675 16.2768 5.21198 12.5463 7.96252 9.79577C10.713 7.04523 14.4436 5.5 18.3334 5.5ZM22.0001 31.1667H25.6667C27.1113 31.1667 28.5417 30.8821 29.8763 30.3293C31.2108 29.7765 32.4235 28.9663 33.4449 27.9448C34.4664 26.9234 35.2766 25.7108 35.8294 24.3762C36.3822 23.0416 36.6667 21.6112 36.6667 20.1667C36.6667 18.7221 36.3822 17.2917 35.8294 15.9571C35.2766 14.6226 34.4664 13.4099 33.4449 12.3885C32.4235 11.367 31.2108 10.5568 29.8763 10.004C28.5417 9.45119 27.1113 9.16667 25.6667 9.16667H18.3334C15.416 9.16667 12.6181 10.3256 10.5552 12.3885C8.49234 14.4514 7.33341 17.2493 7.33341 20.1667C7.33341 26.785 11.8471 31.1043 22.0001 35.7133V31.1667Z" />
        </g>
        <defs>
            <clipPath id="clip0_21_276">
                <rect width="44" height="44" fill="white"/>
            </clipPath>
        </defs>
    </symbol>
    <symbol id="reviews" width="44" height="44" viewBox="0 0 44 44">
        <g clip-path="url(#clip0_21_272)">
            <path d="M3.66675 40.3333C3.66675 36.4434 5.21198 32.7129 7.96252 29.9624C10.713 27.2118 14.4436 25.6666 18.3334 25.6666C22.2233 25.6666 25.9538 27.2118 28.7043 29.9624C31.4548 32.7129 33.0001 36.4434 33.0001 40.3333H29.3334C29.3334 37.4159 28.1745 34.618 26.1116 32.5551C24.0487 30.4922 21.2508 29.3333 18.3334 29.3333C15.416 29.3333 12.6181 30.4922 10.5552 32.5551C8.49234 34.618 7.33341 37.4159 7.33341 40.3333H3.66675ZM18.3334 23.8333C12.2559 23.8333 7.33341 18.9108 7.33341 12.8333C7.33341 6.75575 12.2559 1.83325 18.3334 1.83325C24.4109 1.83325 29.3334 6.75575 29.3334 12.8333C29.3334 18.9108 24.4109 23.8333 18.3334 23.8333ZM18.3334 20.1666C22.3851 20.1666 25.6667 16.8849 25.6667 12.8333C25.6667 8.78159 22.3851 5.49992 18.3334 5.49992C14.2817 5.49992 11.0001 8.78159 11.0001 12.8333C11.0001 16.8849 14.2817 20.1666 18.3334 20.1666ZM33.5208 26.9554C36.0972 28.1158 38.2837 29.9955 39.8175 32.3687C41.3513 34.7419 42.167 37.5076 42.1667 40.3333H38.5001C38.5005 38.2139 37.8888 36.1395 36.7384 34.3595C35.5881 32.5795 33.9481 31.1696 32.0156 30.2994L33.5189 26.9554H33.5208ZM32.2594 6.25709C34.1065 7.01846 35.6859 8.3114 36.7969 9.97184C37.908 11.6323 38.5008 13.5854 38.5001 15.5833C38.5009 18.0992 37.5609 20.5245 35.8647 22.3828C34.1686 24.241 31.839 25.3979 29.3334 25.6263V21.9358C30.6918 21.7412 31.9521 21.1163 32.9291 20.1528C33.9062 19.1892 34.5487 17.9378 34.7622 16.5823C34.9757 15.2268 34.749 13.8385 34.1155 12.6212C33.4819 11.404 32.4747 10.422 31.2419 9.81925L32.2594 6.25709Z" />
        </g>
        <defs>
            <clipPath id="clip0_21_272">
                <rect width="44" height="44" fill="white"/>
            </clipPath>
        </defs>
    </symbol>
</svg>