<svg xmlns="http://www.w3.org/2000/svg">
    <!-- логотип -->
    <symbol id="logo" width="100" height="100" viewBox="0 0 600 600">
        <g clip-path="url(#clip0_8_56)" viewBox="0 0 600 600">
            <path d="M300 298.973C379.514 342.695 432.042 453.68 401.885 543.285C396.282 556.722 348.141 586.161 300 586.161C251.859 586.161 203.718 556.722 198.115 543.285C192.511 529.848 236.367 509.638 266.393 463.118C300 411.051 288.793 298.973 300 298.973Z" fill="#6F73D2"/>
            <path d="M300.059 299.021C298.167 208.299 368.018 107.316 460.697 88.6296C475.136 86.7639 524.701 113.736 548.772 155.427C572.842 197.118 571.418 253.529 562.583 265.1C553.748 276.672 514.318 248.797 459.017 246.053C397.122 242.982 305.663 308.727 300.059 299.021Z" fill="#6F73D2"/>
            <path d="M300.072 298.946C222.45 345.946 100.071 335.944 37.5482 265.025C28.7131 253.453 27.2888 197.042 51.3592 155.351C75.4296 113.66 124.995 86.6884 139.434 88.554C153.872 90.4197 149.447 138.505 174.721 187.768C203.009 242.906 305.675 289.24 300.072 298.946Z" fill="#6F73D2"/>
        </g>
        <defs>
            <clipPath id="clip0_8_56">
                <rect width="100" height="100" fill="white"/>
            </clipPath>
        </defs>
    </symbol>
    <!-- иконки навбара -->
    <symbol id="main" width="44" height="44" viewBox="0 0 44 44">
        <g clip-path="url(#clip0_21_248)">
            <path d="M38.5 36.6667C38.5 37.1529 38.3068 37.6192 37.963 37.963C37.6192 38.3069 37.1529 38.5 36.6667 38.5H7.33333C6.8471 38.5 6.38079 38.3069 6.03697 37.963C5.69315 37.6192 5.5 37.1529 5.5 36.6667V17.3983C5.49981 17.119 5.56346 16.8432 5.68611 16.5922C5.80876 16.3412 5.98715 16.1215 6.20767 15.95L20.8743 4.54301C21.1962 4.29266 21.5923 4.15674 22 4.15674C22.4077 4.15674 22.8038 4.29266 23.1257 4.54301L37.7923 15.95C38.0128 16.1215 38.1912 16.3412 38.3139 16.5922C38.4365 16.8432 38.5002 17.119 38.5 17.3983V36.6667ZM34.8333 34.8333V18.293L22 8.31234L9.16667 18.293V34.8333H34.8333Z" />
        </g>
        <defs>
            <clipPath id="clip0_21_248">
                <rect width="44" height="44" fill="white"/>
            </clipPath>
        </defs>
    </symbol>
    <symbol id="catalog" width="44" height="44" viewBox="0 0 44 44">
        <g>
            <path d="M7.33341 29.3334V7.33341H3.66675V3.66675H9.16675C9.65298 3.66675 10.1193 3.8599 10.4631 4.20372C10.8069 4.54754 11.0001 5.01385 11.0001 5.50008V27.5001H33.8031L37.4697 12.8334H14.6667V9.16675H39.8201C40.0988 9.16676 40.3738 9.23029 40.6242 9.35253C40.8746 9.47477 41.0939 9.65249 41.2654 9.87219C41.4368 10.0919 41.5559 10.3478 41.6136 10.6204C41.6713 10.8931 41.6661 11.1753 41.5984 11.4456L37.0151 29.7789C36.9158 30.1754 36.6868 30.5273 36.3646 30.7787C36.0424 31.0302 35.6455 31.1667 35.2367 31.1667H9.16675C8.68052 31.1667 8.2142 30.9736 7.87039 30.6298C7.52657 30.286 7.33341 29.8196 7.33341 29.3334ZM11.0001 42.1667C10.0276 42.1667 9.09499 41.7804 8.40736 41.0928C7.71972 40.4052 7.33341 39.4725 7.33341 38.5001C7.33341 37.5276 7.71972 36.595 8.40736 35.9074C9.09499 35.2197 10.0276 34.8334 11.0001 34.8334C11.9725 34.8334 12.9052 35.2197 13.5928 35.9074C14.2804 36.595 14.6667 37.5276 14.6667 38.5001C14.6667 39.4725 14.2804 40.4052 13.5928 41.0928C12.9052 41.7804 11.9725 42.1667 11.0001 42.1667ZM33.0001 42.1667C32.0276 42.1667 31.095 41.7804 30.4074 41.0928C29.7197 40.4052 29.3334 39.4725 29.3334 38.5001C29.3334 37.5276 29.7197 36.595 30.4074 35.9074C31.095 35.2197 32.0276 34.8334 33.0001 34.8334C33.9725 34.8334 34.9052 35.2197 35.5928 35.9074C36.2804 36.595 36.6667 37.5276 36.6667 38.5001C36.6667 39.4725 36.2804 40.4052 35.5928 41.0928C34.9052 41.7804 33.9725 42.1667 33.0001 42.1667Z" />
        </g>
        <defs>
            <clipPath id="clip0_21_258">
                <rect width="44" height="44" fill="white"/>
            </clipPath>
        </defs>
    </symbol>
    <symbol id="blog" width="44" height="44" viewBox="0 0 44 44">
        <g clip-path="url(#clip0_21_276)">
            <path d="M18.3334 5.5H25.6667C29.5566 5.5 33.2871 7.04523 36.0376 9.79577C38.7882 12.5463 40.3334 16.2768 40.3334 20.1667C40.3334 24.0565 38.7882 27.787 36.0376 30.5376C33.2871 33.2881 29.5566 34.8333 25.6667 34.8333V41.25C16.5001 37.5833 3.66675 32.0833 3.66675 20.1667C3.66675 16.2768 5.21198 12.5463 7.96252 9.79577C10.713 7.04523 14.4436 5.5 18.3334 5.5ZM22.0001 31.1667H25.6667C27.1113 31.1667 28.5417 30.8821 29.8763 30.3293C31.2108 29.7765 32.4235 28.9663 33.4449 27.9448C34.4664 26.9234 35.2766 25.7108 35.8294 24.3762C36.3822 23.0416 36.6667 21.6112 36.6667 20.1667C36.6667 18.7221 36.3822 17.2917 35.8294 15.9571C35.2766 14.6226 34.4664 13.4099 33.4449 12.3885C32.4235 11.367 31.2108 10.5568 29.8763 10.004C28.5417 9.45119 27.1113 9.16667 25.6667 9.16667H18.3334C15.416 9.16667 12.6181 10.3256 10.5552 12.3885C8.49234 14.4514 7.33341 17.2493 7.33341 20.1667C7.33341 26.785 11.8471 31.1043 22.0001 35.7133V31.1667Z" />
        </g>
        <defs>
            <clipPath id="clip0_21_276">
                <rect width="44" height="44" fill="white"/>
            </clipPath>
        </defs>
    </symbol>
    <symbol id="reviews" width="44" height="44" viewBox="0 0 44 44">
        <g clip-path="url(#clip0_21_272)">
            <path d="M3.66675 40.3333C3.66675 36.4434 5.21198 32.7129 7.96252 29.9624C10.713 27.2118 14.4436 25.6666 18.3334 25.6666C22.2233 25.6666 25.9538 27.2118 28.7043 29.9624C31.4548 32.7129 33.0001 36.4434 33.0001 40.3333H29.3334C29.3334 37.4159 28.1745 34.618 26.1116 32.5551C24.0487 30.4922 21.2508 29.3333 18.3334 29.3333C15.416 29.3333 12.6181 30.4922 10.5552 32.5551C8.49234 34.618 7.33341 37.4159 7.33341 40.3333H3.66675ZM18.3334 23.8333C12.2559 23.8333 7.33341 18.9108 7.33341 12.8333C7.33341 6.75575 12.2559 1.83325 18.3334 1.83325C24.4109 1.83325 29.3334 6.75575 29.3334 12.8333C29.3334 18.9108 24.4109 23.8333 18.3334 23.8333ZM18.3334 20.1666C22.3851 20.1666 25.6667 16.8849 25.6667 12.8333C25.6667 8.78159 22.3851 5.49992 18.3334 5.49992C14.2817 5.49992 11.0001 8.78159 11.0001 12.8333C11.0001 16.8849 14.2817 20.1666 18.3334 20.1666ZM33.5208 26.9554C36.0972 28.1158 38.2837 29.9955 39.8175 32.3687C41.3513 34.7419 42.167 37.5076 42.1667 40.3333H38.5001C38.5005 38.2139 37.8888 36.1395 36.7384 34.3595C35.5881 32.5795 33.9481 31.1696 32.0156 30.2994L33.5189 26.9554H33.5208ZM32.2594 6.25709C34.1065 7.01846 35.6859 8.3114 36.7969 9.97184C37.908 11.6323 38.5008 13.5854 38.5001 15.5833C38.5009 18.0992 37.5609 20.5245 35.8647 22.3828C34.1686 24.241 31.839 25.3979 29.3334 25.6263V21.9358C30.6918 21.7412 31.9521 21.1163 32.9291 20.1528C33.9062 19.1892 34.5487 17.9378 34.7622 16.5823C34.9757 15.2268 34.749 13.8385 34.1155 12.6212C33.4819 11.404 32.4747 10.422 31.2419 9.81925L32.2594 6.25709Z" />
        </g>
        <defs>
            <clipPath id="clip0_21_272">
                <rect width="44" height="44" fill="white"/>
            </clipPath>
        </defs>
    </symbol>
    <!-- прочее -->
    <symbol id="lenoblast" width="780" height="640" viewBox="0 0 780 640">
        <path d="M227.562 276.885C247.524 286.33 252.222 299.254 258.004 311.682C267.486 332.063 254.322 326.221 247.524 332.063L268.983 367.854L294.434 338.525L268.983 319.635L260.499 268.434C259.667 267.108 251.916 266.943 227.562 276.885Z" fill="#83C9F4"/>
        <path d="M21.4587 156.089C21.4587 156.089 40.9213 171.002 54.3954 156.089C63.2817 152.438 65.5748 149.279 70.8569 142.001C72.6928 139.471 74.8898 136.444 77.8503 132.726C81.0322 131.162 83.7152 130.728 86.339 130.303C89.0647 129.861 91.7265 129.43 94.8177 127.755C104.798 101.906 115.278 101.906 115.278 101.906L107.294 193.372C107.294 193.372 100.197 188.007 94.8177 186.91C98.3109 210.273 115.278 210.273 115.278 210.273C115.278 210.273 132.246 229.66 136.737 242.585C148.714 259.983 180.154 248.55 180.154 248.55H213.589C213.589 248.55 232.553 262.966 227.562 276.885C251.916 266.943 259.667 267.108 260.499 268.434L268.983 319.635L294.434 338.525L268.983 367.854L247.524 332.063C233.508 335.902 222.444 328.223 211.396 320.555C206.71 317.302 202.026 314.051 197.121 311.682C144.445 286.241 143.712 288.674 138.333 306.527C137.852 308.125 137.333 309.846 136.737 311.682C141.164 316.092 141.449 321.877 141.76 328.191C142.01 333.264 142.276 338.678 144.722 343.993C137.372 347.852 129.06 345.878 120.613 343.871C111.853 341.79 102.947 339.674 94.8177 343.993C83.8388 357.912 68.8676 375.808 68.8676 375.808L31.9386 343.993C31.9386 343.993 48.9059 391.715 31.9386 403.645C42.4184 410.107 54.3954 425.021 54.3954 425.021C54.3954 425.021 52.3752 435.907 48.9059 441.922C57.4125 455.818 47.1269 457.236 35.9242 458.779C30.6966 459.499 25.2694 460.247 21.4587 462.303C15.955 465.273 14.1396 473.176 12.3322 481.044C10.2064 490.299 8.09167 499.505 0 500.58C0 519.127 20.3513 522.052 34.9012 524.144C44.1386 525.471 51.0377 526.463 48.9059 530.903C70.8025 542.171 107.294 554.764 107.294 554.764C107.294 554.764 122.966 551.802 132.246 554.764C115.279 574.151 159.693 607.456 159.693 607.456L197.121 638.276L215.586 632.808C215.586 632.808 228.062 644.242 232.553 638.276C234.404 623.792 230.932 613.494 228.074 605.015C225.537 597.49 223.484 591.398 226.066 585.087H267.985L321.382 524.44L340.345 500.58H363.8L393.743 441.922H463.608V457.829L473.589 462.303L468.599 482.684H487.563L489.559 494.117C489.559 494.117 503.818 487.519 507.524 479.204C501.037 469.759 501.659 464.725 503.033 455.344C524.492 441.922 528.983 425.021 528.983 425.021L569.904 432.974L609.328 446.893L628.292 468.268H664.722L706.641 485.17L744.069 457.829L780 375.808L761.036 300.248L744.069 253.024L756.046 210.273L749.559 156.089C749.559 156.089 717.62 89.9751 761.036 89.9751C762.273 86.2842 763.349 82.6711 764.389 79.1792L764.389 79.1778C768.133 66.6079 771.408 55.6101 780 48.2187C776.702 16.4043 737.083 7.4565 737.083 7.4565L695.163 0C695.163 0 653.244 14.4159 628.292 30.3231C622.87 35.8209 620.255 45.9958 617.657 56.1037C614.147 69.7582 610.669 83.2902 600.345 85.0041C593.359 85.0041 569.904 76.5534 569.904 76.5534L517.006 186.91C517.006 186.91 503.033 184.424 495.048 180.944C501.037 193.372 501.037 204.805 495.048 242.585C492.054 278.873 427.678 259.983 427.678 259.983L403.724 242.585L380.768 319.635H333.858C333.858 319.635 342.673 283.3 340.345 259.983C321.382 242.585 316.392 228.666 316.392 193.372C308.669 186.992 293.935 180.944 293.935 180.944C293.935 180.944 275.969 164.54 281.459 118.807C274.971 91.9635 258.004 62.6346 258.004 62.6346C258.004 62.6346 233.551 45.7332 218.58 30.3231C206.748 31.4455 193.962 21.6382 183.364 13.5089C175.188 7.23717 168.314 1.96427 164.184 3.4797C160.195 1.2089 159.387 4.12472 158.101 8.77194C156.007 16.3326 152.644 28.4759 132.246 30.3231C104.798 74.0679 21.4587 156.089 21.4587 156.089Z" fill="#83C9F4"/>
<path d="M227.562 276.885C247.524 286.33 252.222 299.254 258.004 311.682C267.486 332.063 248 329.5 232 332L268.983 367.854L294.434 338.525L268.983 319.635L260.499 268.434C259.668 267.108 251.916 266.943 227.562 276.885Z" fill="#6F73D2"/>
    </symbol>
    <symbol id="close" width="36" height="36" viewBox="0 0 36 36">
        <path d="M2 2L34 34M34 2L2 34" stroke="black" stroke-width="5"/>
    </symbol>
    <symbol id="whatsapp" width="40" height="40" viewBox="0 0 40 40">
        <path fill-rule="evenodd" clip-rule="evenodd" d="M31.642 28.2422C31.16 29.6066 29.244 30.7353 27.716 31.0654C26.67 31.2875 25.306 31.4632 20.71 29.5586C15.548 27.42 8.38 19.8019 8.38 14.7324C8.38 12.1516 9.868 9.14648 12.47 9.14648C13.722 9.14648 13.998 9.1709 14.41 10.1592C14.892 11.3235 16.068 14.1922 16.208 14.4863C16.786 15.6927 15.62 16.3989 14.774 17.4492C14.504 17.7653 14.198 18.1072 14.54 18.6953C14.88 19.2715 16.056 21.1881 17.784 22.7266C20.016 24.7152 21.826 25.35 22.474 25.6201C22.956 25.8202 23.532 25.7736 23.884 25.3975C24.33 24.9153 24.884 24.1154 25.448 23.3271C25.846 22.763 26.352 22.6925 26.882 22.8926C27.24 23.0166 31.79 25.1297 31.982 25.4678C32.124 25.7139 32.124 26.8778 31.642 28.2422ZM20.004 0H19.994C8.96799 0 0 8.9707 0 20C0 24.3733 1.41001 28.4307 3.80801 31.7217L1.31601 39.1533L9.00201 36.6973C12.164 38.7899 15.938 40 20.004 40C31.03 40 40 31.0293 40 20C40 8.9707 31.03 0 20.004 0Z" fill="#83C9F4"/>
    </symbol>
    <symbol id="telegram" width="40" height="40" viewBox="0 0 40 40">
        <path d="M28.1766 11.9721C28.1846 11.9721 28.1952 11.9721 28.2058 11.9721C28.4834 11.9721 28.741 12.0584 28.9522 12.2072L28.9482 12.2045C29.1023 12.3386 29.2058 12.5272 29.2311 12.7397V12.7437C29.2576 12.9057 29.2722 13.0916 29.2722 13.2815C29.2722 13.3679 29.2696 13.4529 29.2629 13.5378V13.5259C28.9641 16.672 27.668 24.3015 27.0093 27.8234C26.7304 29.3147 26.1819 29.8141 25.6507 29.8619C24.4967 29.9695 23.6202 29.0996 22.502 28.3665C20.7517 27.2178 19.7623 26.5033 18.0637 25.3838C16.0996 24.0916 17.3732 23.3785 18.4914 22.2178C18.7849 21.9123 23.8725 17.2842 23.9721 16.8645C23.9774 16.8393 23.9801 16.8114 23.9801 16.7822C23.9801 16.6786 23.9416 16.5843 23.8791 16.5126C23.8101 16.4675 23.7238 16.4422 23.6335 16.4422C23.5737 16.4422 23.5166 16.4542 23.4635 16.4741L23.4661 16.4728C23.2908 16.5126 20.4949 18.3603 15.0784 22.0159C14.4874 22.4821 13.741 22.7769 12.9283 22.8114H12.9203C11.7689 22.672 10.7238 22.4157 9.73174 22.0505L9.83001 22.0823C8.58433 21.676 7.59495 21.4621 7.67995 20.7742C7.7251 20.4166 8.21824 20.0505 9.15936 19.676C14.9566 17.1501 18.8225 15.4852 20.757 14.6813C22.8911 13.5485 25.3652 12.6162 27.9668 12.012L28.1753 11.9708L28.1766 11.9721ZM19.9535 0C8.92829 0.0265604 0 8.97078 0 20C0 31.0452 8.95352 40 20 40C31.0465 40 40 31.0465 40 20C40 8.97078 31.0717 0.0265604 20.0491 0H20.0465C20.0155 0 19.9845 0 19.9535 0Z" fill="#83C9F4"/>
    </symbol>
</svg>