<svg width="223" height="194" viewBox="0 0 223 194" fill="none" xmlns="http://www.w3.org/2000/svg">
<path d="M102.943 112.84L106.5 116.441L110.057 112.84L141.901 80.6017L134.786 73.5743L106.5 102.211L95.3843 90.9577L88.2698 97.9851L102.943 112.84ZM155.004 58.2543L157.729 59.3252C157.754 62.4623 157.808 65.5521 157.861 68.616C157.968 74.791 158.073 80.8603 157.936 86.9967C157.711 97.0952 156.82 106.573 154.291 115.14C151.781 123.64 147.667 131.211 140.964 137.579C134.458 143.76 125.27 149.04 112.154 152.804C99.0664 148.968 89.8593 143.515 83.3138 137.135C76.5592 130.551 72.3904 122.737 69.8343 114.075C65.6163 99.7793 65.8712 83.7892 66.1292 67.6129C66.1731 64.8549 66.2172 62.0915 66.2392 59.3302L112.13 41.3733C119.504 44.29 131.006 48.8182 140.983 52.7424C146.408 54.8761 151.384 56.8319 155.004 58.2543Z" stroke="#A3D5FF" stroke-width="10"/>
</svg>
