<svg width="780" height="640" viewBox="0 0 780 640" fill="none" xmlns="http://www.w3.org/2000/svg">
<path d="M227.562 276.885C247.524 286.33 252.222 299.254 258.004 311.682C267.486 332.063 254.322 326.221 247.524 332.063L268.983 367.854L294.434 338.525L268.983 319.635L260.499 268.434C259.667 267.108 251.916 266.943 227.562 276.885Z" fill="#83C9F4"/>
<path d="M21.4587 156.089C21.4587 156.089 40.9213 171.002 54.3954 156.089C63.2817 152.438 65.5748 149.279 70.8569 142.001C72.6928 139.471 74.8898 136.444 77.8503 132.726C81.0322 131.162 83.7152 130.728 86.339 130.303C89.0647 129.861 91.7265 129.43 94.8177 127.755C104.798 101.906 115.278 101.906 115.278 101.906L107.294 193.372C107.294 193.372 100.197 188.007 94.8177 186.91C98.3109 210.273 115.278 210.273 115.278 210.273C115.278 210.273 132.246 229.66 136.737 242.585C148.714 259.983 180.154 248.55 180.154 248.55H213.589C213.589 248.55 232.553 262.966 227.562 276.885C251.916 266.943 259.667 267.108 260.499 268.434L268.983 319.635L294.434 338.525L268.983 367.854L247.524 332.063C233.508 335.902 222.444 328.223 211.396 320.555C206.71 317.302 202.026 314.051 197.121 311.682C144.445 286.241 143.712 288.674 138.333 306.527C137.852 308.125 137.333 309.846 136.737 311.682C141.164 316.092 141.449 321.877 141.76 328.191C142.01 333.264 142.276 338.678 144.722 343.993C137.372 347.852 129.06 345.878 120.613 343.871C111.853 341.79 102.947 339.674 94.8177 343.993C83.8388 357.912 68.8676 375.808 68.8676 375.808L31.9386 343.993C31.9386 343.993 48.9059 391.715 31.9386 403.645C42.4184 410.107 54.3954 425.021 54.3954 425.021C54.3954 425.021 52.3752 435.907 48.9059 441.922C57.4125 455.818 47.1269 457.236 35.9242 458.779C30.6966 459.499 25.2694 460.247 21.4587 462.303C15.955 465.273 14.1396 473.176 12.3322 481.044C10.2064 490.299 8.09167 499.505 0 500.58C0 519.127 20.3513 522.052 34.9012 524.144C44.1386 525.471 51.0377 526.463 48.9059 530.903C70.8025 542.171 107.294 554.764 107.294 554.764C107.294 554.764 122.966 551.802 132.246 554.764C115.279 574.151 159.693 607.456 159.693 607.456L197.121 638.276L215.586 632.808C215.586 632.808 228.062 644.242 232.553 638.276C234.404 623.792 230.932 613.494 228.074 605.015C225.537 597.49 223.484 591.398 226.066 585.087H267.985L321.382 524.44L340.345 500.58H363.8L393.743 441.922H463.608V457.829L473.589 462.303L468.599 482.684H487.563L489.559 494.117C489.559 494.117 503.818 487.519 507.524 479.204C501.037 469.759 501.659 464.725 503.033 455.344C524.492 441.922 528.983 425.021 528.983 425.021L569.904 432.974L609.328 446.893L628.292 468.268H664.722L706.641 485.17L744.069 457.829L780 375.808L761.036 300.248L744.069 253.024L756.046 210.273L749.559 156.089C749.559 156.089 717.62 89.9751 761.036 89.9751C762.273 86.2842 763.349 82.6711 764.389 79.1792L764.389 79.1778C768.133 66.6079 771.408 55.6101 780 48.2187C776.702 16.4043 737.083 7.4565 737.083 7.4565L695.163 0C695.163 0 653.244 14.4159 628.292 30.3231C622.87 35.8209 620.255 45.9958 617.657 56.1037C614.147 69.7582 610.669 83.2902 600.345 85.0041C593.359 85.0041 569.904 76.5534 569.904 76.5534L517.006 186.91C517.006 186.91 503.033 184.424 495.048 180.944C501.037 193.372 501.037 204.805 495.048 242.585C492.054 278.873 427.678 259.983 427.678 259.983L403.724 242.585L380.768 319.635H333.858C333.858 319.635 342.673 283.3 340.345 259.983C321.382 242.585 316.392 228.666 316.392 193.372C308.669 186.992 293.935 180.944 293.935 180.944C293.935 180.944 275.969 164.54 281.459 118.807C274.971 91.9635 258.004 62.6346 258.004 62.6346C258.004 62.6346 233.551 45.7332 218.58 30.3231C206.748 31.4455 193.962 21.6382 183.364 13.5089C175.188 7.23717 168.314 1.96427 164.184 3.4797C160.195 1.2089 159.387 4.12472 158.101 8.77194C156.007 16.3326 152.644 28.4759 132.246 30.3231C104.798 74.0679 21.4587 156.089 21.4587 156.089Z" fill="#83C9F4"/>
<path d="M227.562 276.885C247.524 286.33 252.222 299.254 258.004 311.682C267.486 332.063 248 329.5 232 332L268.983 367.854L294.434 338.525L268.983 319.635L260.499 268.434C259.668 267.108 251.916 266.943 227.562 276.885Z" fill="#6F73D2"/>
</svg>
